<?xml version="1.0" encoding="utf-8"?>
<!-- Generator: Adobe Illustrator 22.1.0, SVG Export Plug-In . SVG Version: 6.00 Build 0)  -->
<svg version="1.1" xmlns="http://www.w3.org/2000/svg" xmlns:xlink="http://www.w3.org/1999/xlink" x="0px" y="0px"
	 viewBox="0 0 1400 1000" style="enable-background:new 0 0 1400 1000;" xml:space="preserve">
<style type="text/css">
	.st0{fill:#FCFCFC;}
	.st1{fill:#C0E27F;}
	.st2{fill:#E6F5FC;}
	.st3{fill:#91BDCE;}
	.st4{fill:#F6EDB6;}
	.st5{fill:#484849;}
	.st6{fill:#D7D7D7;}
	.st7{opacity:0.3;fill:#484849;}
	.st8{fill:#646566;}
	.st9{fill:#75B8EF;}
	.st10{opacity:0.4;}
	.st11{fill:#FCD4D9;}
	.st12{opacity:0.3;}
	.st13{fill:#FFFFFF;stroke:#484849;stroke-width:2;stroke-miterlimit:10;}
	.st14{opacity:0.4;fill:#484849;}
	.st15{fill:#FFFFFF;}
	.st16{fill:#AAD663;}
</style>
<g id="OBJECT">
	<g>
		<path class="st1" d="M1305.5,731.1H109.8c-18.3,0-33.3,15-33.3,33.3v0c0,18.3,15,33.3,33.3,33.3h113.8c16.8,0,30.2,13.9,30,30.7
			c0,0.1,0,0.3,0,0.4v0c0,18.3,15,33.3,33.3,33.3h806.1c18.3,0,33.3-15,33.3-33.3v0c0-0.1,0-0.3,0-0.4c-0.2-16.8,13.2-30.7,30-30.7
			h149.2c18.3,0,33.3-15,33.3-33.3v0C1338.7,746.1,1323.8,731.1,1305.5,731.1z"/>
		<g>
			<g>
				<path class="st2" d="M1223.2,680.3c0-301-244-545-545-545s-545,244-545,545c0,19,1,37.8,2.9,56.2h1084.2
					C1222.2,718,1223.2,699.3,1223.2,680.3z"/>
				<g>
					<polygon class="st3" points="390.3,334 390.3,366.8 359.7,366.8 359.7,736.6 420.8,736.6 420.8,385.1 420.8,366.8 420.8,334
											"/>
					<polygon class="st3" points="745.8,436 745.8,403.3 736.5,403.3 705.8,361.1 675,403.3 665.7,403.3 665.7,436 649.9,436
						649.9,736.6 761.6,736.6 761.6,436 					"/>
					<polygon class="st3" points="1176.7,436 1176.7,403.3 1167.5,403.3 1136.7,361.1 1105.9,403.3 1096.7,403.3 1096.7,436
						1080.8,436 1080.8,736.6 1192.6,736.6 1192.6,436 					"/>
					<polygon class="st3" points="853.1,406.5 853.1,354.6 778,354.6 778,406.5 763.5,406.5 763.5,736.6 867.5,736.6 867.5,406.5
											"/>
					<polygon class="st3" points="233.5,423.7 233.5,736.6 340.4,736.6 340.4,386.9 					"/>
					<polygon class="st3" points="904.3,390.6 904.3,736.6 1053.2,736.6 1053.2,329 					"/>
					<polygon class="st3" points="546.1,390.7 529.7,390.8 529.6,361.1 455.3,361.5 455.4,391.2 439,391.2 440.8,736.6 547.9,736
											"/>
					<rect x="133.3" y="356.6" class="st3" width="92.1" height="380"/>
					<rect x="566.6" y="421.7" class="st3" width="72.2" height="315"/>
				</g>
				<g>
					<g>
						<g>
							<rect x="826.8" y="421.7" class="st4" width="92.1" height="315"/>
							<path class="st5" d="M921.6,739.3h-97.5V418.9h97.5V739.3z M829.5,733.9h86.6V424.4h-86.6V733.9z"/>
						</g>
						<g>
							<g>
								<rect x="842.9" y="450.3" class="st6" width="59.8" height="15.3"/>
								<path class="st5" d="M905.5,468.4h-65.3v-20.8h65.3V468.4z M845.6,462.9H900V453h-54.4V462.9z"/>
							</g>
							<g>
								<rect x="842.9" y="498.8" class="st6" width="59.8" height="15.3"/>
								<path class="st5" d="M905.5,516.8h-65.3V496h65.3V516.8z M845.6,511.4H900v-9.9h-54.4V511.4z"/>
							</g>
							<g>
								<rect x="842.9" y="547.2" class="st6" width="59.8" height="15.3"/>
								<path class="st5" d="M905.5,565.3h-65.3v-20.8h65.3V565.3z M845.6,559.8H900V550h-54.4V559.8z"/>
							</g>
							<g>
								<rect x="842.9" y="595.7" class="st6" width="59.8" height="15.3"/>
								<path class="st5" d="M905.5,613.8h-65.3V593h65.3V613.8z M845.6,608.3H900v-9.9h-54.4V608.3z"/>
							</g>
							<g>
								<rect x="842.9" y="644.2" class="st6" width="59.8" height="15.3"/>
								<path class="st5" d="M905.5,662.2h-65.3v-20.8h65.3V662.2z M845.6,656.8H900v-9.9h-54.4V656.8z"/>
							</g>
							<g>
								<rect x="842.9" y="692.6" class="st6" width="59.8" height="15.3"/>
								<path class="st5" d="M905.5,710.7h-65.3v-20.8h65.3V710.7z M845.6,705.2H900v-9.9h-54.4V705.2z"/>
							</g>
						</g>
					</g>
					<rect x="887.3" y="419.4" class="st7" width="33.9" height="319.5"/>
				</g>
				<g>
					<g>
						<g>
							<rect x="991.9" y="388.2" class="st8" width="68.5" height="59.3"/>
							<path class="st5" d="M1063.2,450.3h-74v-64.8h74V450.3z M994.7,444.8h63.1V391h-63.1V444.8z"/>
						</g>
						<g>
							<rect x="978.8" y="435.6" class="st6" width="94.8" height="301.1"/>
							<path class="st5" d="M1076.3,739.3H976.1V432.8h100.3V739.3z M981.5,733.9h89.4V438.3h-89.4V733.9z"/>
						</g>
						<g>
							<g>
								<rect x="1007.2" y="410.3" class="st9" width="38" height="300.2"/>
								<path class="st5" d="M1047.9,713.3h-43.4V407.6h43.4V713.3z M1009.9,707.8h32.5V413.1h-32.5V707.8z"/>
							</g>
							<g>
								<path class="st5" d="M1033,432.7h-13.7c-1.5,0-2.7-1.2-2.7-2.7s1.2-2.7,2.7-2.7h13.7c1.5,0,2.7,1.2,2.7,2.7
									S1034.6,432.7,1033,432.7z"/>
								<path class="st5" d="M1033,470h-13.7c-1.5,0-2.7-1.2-2.7-2.7s1.2-2.7,2.7-2.7h13.7c1.5,0,2.7,1.2,2.7,2.7
									S1034.6,470,1033,470z"/>
								<path class="st5" d="M1033,507.3h-13.7c-1.5,0-2.7-1.2-2.7-2.7c0-1.5,1.2-2.7,2.7-2.7h13.7c1.5,0,2.7,1.2,2.7,2.7
									C1035.8,506.1,1034.6,507.3,1033,507.3z"/>
								<path class="st5" d="M1033,544.5h-13.7c-1.5,0-2.7-1.2-2.7-2.7c0-1.5,1.2-2.7,2.7-2.7h13.7c1.5,0,2.7,1.2,2.7,2.7
									C1035.8,543.3,1034.6,544.5,1033,544.5z"/>
								<path class="st5" d="M1033,581.8h-13.7c-1.5,0-2.7-1.2-2.7-2.7c0-1.5,1.2-2.7,2.7-2.7h13.7c1.5,0,2.7,1.2,2.7,2.7
									C1035.8,580.6,1034.6,581.8,1033,581.8z"/>
								<path class="st5" d="M1033,619.1h-13.7c-1.5,0-2.7-1.2-2.7-2.7c0-1.5,1.2-2.7,2.7-2.7h13.7c1.5,0,2.7,1.2,2.7,2.7
									C1035.8,617.9,1034.6,619.1,1033,619.1z"/>
								<path class="st5" d="M1033,656.3h-13.7c-1.5,0-2.7-1.2-2.7-2.7c0-1.5,1.2-2.7,2.7-2.7h13.7c1.5,0,2.7,1.2,2.7,2.7
									C1035.8,655.1,1034.6,656.3,1033,656.3z"/>
								<path class="st5" d="M1033,693.6h-13.7c-1.5,0-2.7-1.2-2.7-2.7c0-1.5,1.2-2.7,2.7-2.7h13.7c1.5,0,2.7,1.2,2.7,2.7
									C1035.8,692.4,1034.6,693.6,1033,693.6z"/>
							</g>
						</g>
					</g>
					<g class="st10">
						<polygon class="st5" points="1062.7,433.3 1062.7,385.9 1013,385.9 1013,433.3 1026.2,433.3 1026.2,738.9 1075.9,738.9
							1075.9,433.3 						"/>
					</g>
				</g>
				<g>
					<g>
						<g>
							<polygon class="st11" points="507.6,736.6 383.4,736.6 383.4,396.9 507.6,448.3 							"/>
							<path class="st5" d="M510.3,739.3H380.7V392.8l129.6,53.6V739.3z M386.2,733.9h118.6V450.1L386.2,401V733.9z"/>
						</g>
						<g>
							<g>
								<rect x="414.5" y="459.4" class="st9" width="19.4" height="247.9"/>
								<path class="st5" d="M436.6,710h-24.9V456.7h24.9V710z M417.2,704.6h13.9V462.1h-13.9V704.6z"/>
							</g>
							<g>
								<rect x="457.1" y="459.4" class="st9" width="19.4" height="247.9"/>
								<path class="st5" d="M479.3,710h-24.9V456.7h24.9V710z M459.9,704.6h13.9V462.1h-13.9V704.6z"/>
							</g>
						</g>
					</g>
					<polygon class="st7" points="381.2,393.5 381.2,420.1 445.5,446.7 445.5,738.9 509.8,738.9 509.8,446.7 					"/>
				</g>
				<g>
					<g>

							<rect x="147.5" y="428.6" transform="matrix(1 -5.227400e-03 5.227400e-03 1 -2.3363 0.9363)" class="st4" width="61" height="37.7"/>
						<path class="st5" d="M144.8,469.1l-0.2-43.1l66.5-0.3l0.2,43.1L144.8,469.1z M150.1,431.4l0.2,32.2l55.5-0.3l-0.2-32.2
							L150.1,431.4z"/>
					</g>
					<g>

							<rect x="134.8" y="452.9" transform="matrix(1 -5.225679e-03 5.225679e-03 1 -3.105 0.9421)" class="st4" width="87.9" height="283.5"/>
						<path class="st5" d="M132.8,739.4l-1.5-288.9l93.4-0.5l1.5,288.9L132.8,739.4z M136.8,455.9l1.5,278l82.5-0.4l-1.5-278
							L136.8,455.9z"/>
					</g>
					<g>
						<path class="st5" d="M154,484.4c-1.5,0-2.7-1.2-2.7-2.7c0-1.5,1.2-2.7,2.7-2.7l48.3-0.3c0,0,0,0,0,0c1.5,0,2.7,1.2,2.7,2.7
							c0,1.5-1.2,2.7-2.7,2.7L154,484.4C154,484.4,154,484.4,154,484.4z"/>
						<path class="st5" d="M154.2,522.1c-1.5,0-2.7-1.2-2.7-2.7c0-1.5,1.2-2.7,2.7-2.7l48.3-0.3c0,0,0,0,0,0c1.5,0,2.7,1.2,2.7,2.7
							c0,1.5-1.2,2.7-2.7,2.7L154.2,522.1C154.2,522.1,154.2,522.1,154.2,522.1z"/>
						<path class="st5" d="M154.4,559.8c-1.5,0-2.7-1.2-2.7-2.7c0-1.5,1.2-2.7,2.7-2.7l48.3-0.3c0,0,0,0,0,0c1.5,0,2.7,1.2,2.7,2.7
							c0,1.5-1.2,2.7-2.7,2.7L154.4,559.8C154.4,559.8,154.4,559.8,154.4,559.8z"/>
						<path class="st5" d="M154.6,597.5c-1.5,0-2.7-1.2-2.7-2.7c0-1.5,1.2-2.7,2.7-2.7l48.3-0.3c0,0,0,0,0,0c1.5,0,2.7,1.2,2.7,2.7
							c0,1.5-1.2,2.7-2.7,2.7L154.6,597.5C154.6,597.5,154.6,597.5,154.6,597.5z"/>
						<path class="st5" d="M154.8,635.2c-1.5,0-2.7-1.2-2.7-2.7c0-1.5,1.2-2.7,2.7-2.7l48.3-0.3c0,0,0,0,0,0c1.5,0,2.7,1.2,2.7,2.7
							c0,1.5-1.2,2.7-2.7,2.7L154.8,635.2C154.8,635.2,154.8,635.2,154.8,635.2z"/>
						<path class="st5" d="M155,672.9c-1.5,0-2.7-1.2-2.7-2.7c0-1.5,1.2-2.7,2.7-2.7l48.3-0.3c0,0,0,0,0,0c1.5,0,2.7,1.2,2.7,2.7
							c0,1.5-1.2,2.7-2.7,2.7L155,672.9C155,672.9,155,672.9,155,672.9z"/>
						<path class="st5" d="M155.2,710.6c-1.5,0-2.7-1.2-2.7-2.7c0-1.5,1.2-2.7,2.7-2.7l48.3-0.3c0,0,0,0,0,0c1.5,0,2.7,1.2,2.7,2.7
							c0,1.5-1.2,2.7-2.7,2.7L155.2,710.6C155.2,710.6,155.2,710.6,155.2,710.6z"/>
					</g>
				</g>
				<g class="st12">
					<polygon class="st5" points="225.7,738.4 224.2,450.4 210.7,450.5 210.6,426.1 181.4,426.3 181.5,450.5 195,450.4 196.5,738.4
						133.2,738.8 133.2,738.9 					"/>
				</g>
				<g>
					<g>
						<g>
							<g>
								<polygon class="st11" points="983.3,715.7 909.9,715.7 930.4,361.1 962.9,361.1 								"/>
								<path class="st5" d="M986.2,718.4H907l0.2-2.9l20.6-357.2h37.7l0.1,2.6L986.2,718.4z M912.8,713h67.7l-20.2-349.2h-27.3
									L912.8,713z"/>
							</g>
							<g>
								<rect x="940.9" y="361.1" class="st5" width="2.7" height="354.6"/>
								<rect x="949.6" y="361.1" class="st5" width="2.7" height="354.6"/>
							</g>
						</g>
						<g>
							<rect x="919.5" y="341.3" class="st6" width="54.3" height="26.6"/>
							<path class="st5" d="M976.5,370.7h-59.7v-32.1h59.7V370.7z M922.2,365.2H971v-21.2h-48.8V365.2z"/>
						</g>
						<g>
							<polygon class="st11" points="938.4,278 954.9,278 946.6,176.3 							"/>
							<path class="st5" d="M957.8,280.8h-22.4l8.5-104.7h5.4L957.8,280.8z M941.3,275.3h10.6l-5.3-65.2L941.3,275.3z"/>
						</g>
						<g>
							<rect x="928.7" y="270.1" class="st6" width="35.9" height="20.4"/>
							<path class="st5" d="M967.3,293.2h-41.4v-25.8h41.4V293.2z M931.4,287.7h30.4v-14.9h-30.4V287.7z"/>
						</g>
						<g>
							<rect x="907.9" y="281.4" class="st6" width="77.3" height="26.5"/>
							<path class="st5" d="M988,310.7h-82.8v-32H988V310.7z M910.7,305.2h71.9v-21.1h-71.9V305.2z"/>
						</g>
						<g>
							<rect x="907.9" y="322.1" class="st6" width="77.3" height="26.5"/>
							<path class="st5" d="M988,351.4h-82.8v-32H988V351.4z M910.7,345.9h71.9v-21.1h-71.9V345.9z"/>
						</g>
						<g>
							<rect x="883.1" y="299.9" class="st11" width="127" height="33.7"/>
							<path class="st5" d="M1012.8,336.3H880.4v-39.2h132.4V336.3z M885.9,330.9h121.5v-28.3H885.9V330.9z"/>
						</g>
						<path class="st5" d="M990.2,319.4H903c-1.5,0-2.7-1.2-2.7-2.7s1.2-2.7,2.7-2.7h87.1c1.5,0,2.7,1.2,2.7,2.7
							S991.7,319.4,990.2,319.4z"/>
						<g>
							<rect x="883.1" y="694.8" class="st8" width="127" height="41.8"/>
							<path class="st5" d="M1012.8,739.3H880.4v-47.3h132.4V739.3z M885.9,733.9h121.5v-36.4H885.9V733.9z"/>
						</g>
						<path class="st13" d="M946.6,368"/>
					</g>
					<g class="st12">
						<polygon class="st5" points="976,350.9 987.6,350.9 987.6,335.9 1012.4,335.9 1012.4,297.6 987.6,297.6 987.6,279.1
							966.8,279.1 966.8,267.8 956.3,267.8 948.9,176.1 944.3,176.1 936.9,267.8 939.1,267.8 939.1,279.1 959.8,279.1 959.8,297.6
							984.6,297.6 984.6,335.9 959.8,335.9 959.8,350.9 948.3,350.9 948.3,370.2 937.9,370.2 956.5,692.5 984.3,692.5 965.7,370.2
							976,370.2 						"/>
						<rect x="984.6" y="692.5" class="st5" width="27.8" height="46.4"/>
					</g>
				</g>
				<g>
					<g>
						<g>
							<g>
								<g>
									<path class="st9" d="M229.5,623.2c0,14-11.4,25.4-25.4,25.4c-14,0-25.4-11.4-25.4-25.4c0-14,11.4-31.3,25.4-31.3
										C218.1,591.8,229.5,609.2,229.5,623.2z"/>
									<path class="st5" d="M204.1,651.3c-15.5,0-28.1-12.6-28.1-28.1c0-15.4,12.5-34.1,28.1-34.1c15.6,0,28.1,18.6,28.1,34.1
										C232.2,638.7,219.6,651.3,204.1,651.3z M204.1,594.6c-12.2,0-22.6,15.7-22.6,28.6c0,12.5,10.2,22.6,22.6,22.6
										c12.5,0,22.6-10.2,22.6-22.6C226.7,610.3,216.3,594.6,204.1,594.6z"/>
								</g>
								<path class="st14" d="M204.1,589.6c-5,0-9.8,2-13.8,5.2c8.3,6.6,13.8,18.2,13.8,28.4c0,10.2-5.6,19.1-13.8,23.9
									c4.1,2.4,8.8,3.7,13.8,3.7c15.2,0,27.7-12.4,27.7-27.7C231.7,608,219.4,589.6,204.1,589.6z"/>
								<path class="st5" d="M204.1,594.6c-1.5,0-2.7-1.2-2.7-2.7v-26.2c0-1.5,1.2-2.7,2.7-2.7c1.5,0,2.7,1.2,2.7,2.7v26.2
									C206.8,593.4,205.6,594.6,204.1,594.6z"/>
							</g>
							<g>
								<g>
									<path class="st9" d="M439.3,623.2c0,14-11.4,25.4-25.4,25.4s-25.4-11.4-25.4-25.4c0-14,11.4-31.3,25.4-31.3
										S439.3,609.2,439.3,623.2z"/>
									<path class="st5" d="M413.9,651.3c-15.5,0-28.1-12.6-28.1-28.1c0-15.4,12.5-34.1,28.1-34.1c15.6,0,28.1,18.6,28.1,34.1
										C442,638.7,429.4,651.3,413.9,651.3z M413.9,594.6c-12.2,0-22.6,15.7-22.6,28.6c0,12.5,10.2,22.6,22.6,22.6
										c12.5,0,22.6-10.2,22.6-22.6C436.6,610.3,426.1,594.6,413.9,594.6z"/>
								</g>
								<path class="st5" d="M413.9,594.6c-1.5,0-2.7-1.2-2.7-2.7v-26.2c0-1.5,1.2-2.7,2.7-2.7s2.7,1.2,2.7,2.7v26.2
									C416.6,593.4,415.4,594.6,413.9,594.6z"/>
							</g>
						</g>
						<g>
							<path class="st9" d="M359.7,530.9c0,28-22.7,50.7-50.7,50.7c-28,0-50.7-22.7-50.7-50.7c0-28,22.7-62.7,50.7-62.7
								C337,468.2,359.7,502.9,359.7,530.9z"/>
							<path class="st5" d="M309,584.3c-29.5,0-53.5-24-53.5-53.5c0-29.6,23.8-65.4,53.5-65.4c29.6,0,53.5,35.8,53.5,65.4
								C362.5,560.4,338.5,584.3,309,584.3z M309,470.9c-25.9,0-48,33-48,59.9c0,26.5,21.5,48,48,48s48-21.5,48-48
								C357,503.9,334.9,470.9,309,470.9z"/>
						</g>
						<g>
							<rect x="252.9" y="540.7" class="st6" width="112.3" height="69.2"/>
							<path class="st5" d="M367.9,612.6H250.1V538h117.8V612.6z M255.6,607.2h106.8v-63.7H255.6V607.2z"/>
						</g>
						<g>
							<rect x="245" y="530.9" class="st8" width="128.1" height="17.1"/>
							<path class="st5" d="M375.8,550.7H242.2v-22.5h133.5V550.7z M247.7,545.2h122.6v-11.6H247.7V545.2z"/>
						</g>
						<g>
							<g>
								<path class="st4" d="M283.7,587.1h-12.2v-22c0-3.4,6.1-6.1,6.1-6.1l0,0c0,0,6.1,2.7,6.1,6.1V587.1z"/>
								<path class="st5" d="M286.4,589.8h-17.7v-24.7c0-4.9,6.4-8,7.7-8.6l1.1-0.5l1.1,0.5c1.3,0.6,7.7,3.7,7.7,8.6V589.8z
									 M274.2,584.4h6.8v-19.2c0-0.6-1.5-2-3.4-3.1c-1.9,1.1-3.4,2.5-3.4,3.1V584.4z"/>
							</g>
							<g>
								<path class="st4" d="M315.1,587.1h-12.2v-22c0-3.4,6.1-6.1,6.1-6.1l0,0c0,0,6.1,2.7,6.1,6.1V587.1z"/>
								<path class="st5" d="M317.9,589.8h-17.7v-24.7c0-4.9,6.4-8,7.7-8.6l1.1-0.5l1.1,0.5c1.3,0.6,7.7,3.7,7.7,8.6V589.8z
									 M305.6,584.4h6.8v-19.2c0-0.6-1.5-2-3.4-3.1c-1.9,1.1-3.4,2.5-3.4,3.1V584.4z"/>
							</g>
							<g>
								<path class="st4" d="M346.5,587.1h-12.2v-22c0-3.4,6.1-6.1,6.1-6.1l0,0c0,0,6.1,2.7,6.1,6.1V587.1z"/>
								<path class="st5" d="M349.3,589.8h-17.7v-24.7c0-4.9,6.4-8,7.7-8.6l1.1-0.5l1.1,0.5c1.3,0.6,7.7,3.7,7.7,8.6V589.8z
									 M337,584.4h6.8v-19.2c0-0.6-1.5-2-3.4-3.1c-1.9,1.1-3.4,2.5-3.4,3.1V584.4z"/>
							</g>
						</g>
						<g>
							<rect x="238.5" y="587.1" class="st8" width="141.1" height="45.6"/>
							<path class="st5" d="M382.3,635.5H235.7v-51.1h146.5V635.5z M241.2,630h135.6v-40.2H241.2V630z"/>
						</g>
						<g>
							<rect x="169.6" y="620.2" class="st6" width="278.7" height="105.6"/>
							<path class="st5" d="M451.1,728.5H166.9v-111h284.2V728.5z M172.4,723h273.2V622.9H172.4V723z"/>
						</g>
						<g>
							<g>
								<path class="st4" d="M239,725.8h-34.1v-61.2c0-9.4,17.1-17.1,17.1-17.1h0c0,0,17.1,7.6,17.1,17.1V725.8z"/>
								<path class="st5" d="M241.7,728.5h-39.6v-63.9c0-10.9,16.8-18.7,18.7-19.5l1.1-0.5l1.1,0.5c1.9,0.9,18.7,8.7,18.7,19.5
									V728.5z M207.6,723h28.6v-58.5c0-5.7-9.6-11.7-14.3-14c-4.7,2.3-14.3,8.3-14.3,14V723z"/>
							</g>
							<g>
								<path class="st4" d="M297,725.8h-34.1v-61.2c0-9.4,17.1-17.1,17.1-17.1l0,0c0,0,17.1,7.6,17.1,17.1V725.8z"/>
								<path class="st5" d="M299.8,728.5h-39.6v-63.9c0-10.9,16.8-18.7,18.7-19.5l1.1-0.5l1.1,0.5c1.9,0.9,18.7,8.7,18.7,19.5
									V728.5z M265.7,723h28.6v-58.5c0-5.7-9.6-11.7-14.3-14c-4.7,2.3-14.3,8.3-14.3,14V723z"/>
							</g>
							<g>
								<path class="st4" d="M355.1,725.8H321v-61.2c0-9.4,17.1-17.1,17.1-17.1l0,0c0,0,17.1,7.6,17.1,17.1V725.8z"/>
								<path class="st5" d="M357.8,728.5h-39.6v-63.9c0-10.9,16.8-18.7,18.7-19.5l1.1-0.5l1.1,0.5c1.9,0.9,18.7,8.7,18.7,19.5
									V728.5z M323.7,723h28.6v-58.5c0-5.7-9.6-11.7-14.3-14c-4.7,2.3-14.3,8.3-14.3,14V723z"/>
							</g>
							<g>
								<path class="st4" d="M413.1,725.8H379v-61.2c0-9.4,17.1-17.1,17.1-17.1l0,0c0,0,17.1,7.6,17.1,17.1V725.8z"/>
								<path class="st5" d="M415.9,728.5h-39.6v-63.9c0-10.9,16.8-18.7,18.7-19.5l1.1-0.5l1.1,0.5c1.9,0.9,18.7,8.7,18.7,19.5
									V728.5z M381.7,723h28.6v-58.5c0-5.7-9.6-11.7-14.3-14c-4.7,2.3-14.3,8.3-14.3,14V723z"/>
							</g>
						</g>
						<path class="st5" d="M309,470.9c-1.5,0-2.7-1.2-2.7-2.7v-59.3c0-1.5,1.2-2.7,2.7-2.7s2.7,1.2,2.7,2.7v59.3
							C311.7,469.7,310.5,470.9,309,470.9z"/>
					</g>
					<g>
						<rect x="158.8" y="719.3" class="st8" width="300.4" height="17.3"/>
						<path class="st5" d="M461.9,739.3H156.1v-22.7h305.8V739.3z M161.5,733.9h294.9v-11.8H161.5V733.9z"/>
					</g>
				</g>
				<g class="st10">
					<g>
						<path class="st5" d="M324.4,528.6h13.3v21.6h-7.9v34.6h14.4v33.1h4.9c2.2-13.1,12.3-26.7,24.9-28.2v-4.9h-6.7v-34.6h7.9v-21.6
							H362c-1.1-28.2-23.1-60.9-50.7-62.6v-57.1c0-1.3-1-2.3-2.3-2.3s-2.3,1-2.3,2.3V466c-5.8,0.4-11.3,2.1-16.5,4.9
							C309.6,481.3,323.5,506.3,324.4,528.6z"/>
						<path class="st5" d="M450.6,717.1v-99.1h-9.6c-2.2-13.1-12.3-26.7-24.9-28.2v-24.1c0-1.3-1-2.3-2.3-2.3s-2.3,1-2.3,2.3v24.1
							c-6.4,0.8-12.1,4.6-16.5,10c4.3,5.2,7.3,11.8,8.4,18.2h9.6v99.1h10.8v21.8h37.5v-21.8H450.6z"/>
					</g>
				</g>
				<g>
					<line class="st15" x1="58.9" y1="736.5" x2="1341.1" y2="736.5"/>
					<path class="st5" d="M1341.1,742H58.9c-3,0-5.5-2.4-5.5-5.5s2.4-5.5,5.5-5.5h1282.1c3,0,5.5,2.4,5.5,5.5S1344.1,742,1341.1,742
						z"/>
				</g>
				<g>
					<g>
						<path class="st5" d="M1242.4,547c-0.9,0-1.7-0.8-1.7-1.7v-7.5c0-0.9,0.8-1.7,1.7-1.7s1.7,0.8,1.7,1.7v7.5
							C1244.1,546.3,1243.4,547,1242.4,547z"/>
						<path class="st5" d="M1242.4,564.6c-0.9,0-1.7-0.8-1.7-1.7v-7.5c0-0.9,0.8-1.7,1.7-1.7s1.7,0.8,1.7,1.7v7.5
							C1244.1,563.9,1243.4,564.6,1242.4,564.6z"/>
					</g>
					<g>
						<path class="st5" d="M1237.4,552.1h-7.5c-0.9,0-1.7-0.8-1.7-1.7c0-0.9,0.8-1.7,1.7-1.7h7.5c0.9,0,1.7,0.8,1.7,1.7
							C1239.1,551.3,1238.3,552.1,1237.4,552.1z"/>
						<path class="st5" d="M1255,552.1h-7.5c-0.9,0-1.7-0.8-1.7-1.7c0-0.9,0.8-1.7,1.7-1.7h7.5c0.9,0,1.7,0.8,1.7,1.7
							C1256.7,551.3,1255.9,552.1,1255,552.1z"/>
					</g>
				</g>
				<g>
					<g>
						<path class="st5" d="M480.2,146.1c-0.8,0-1.5-0.7-1.5-1.5V138c0-0.8,0.7-1.5,1.5-1.5c0.8,0,1.5,0.7,1.5,1.5v6.5
							C481.7,145.4,481.1,146.1,480.2,146.1z"/>
						<path class="st5" d="M480.2,161.4c-0.8,0-1.5-0.7-1.5-1.5v-6.5c0-0.8,0.7-1.5,1.5-1.5c0.8,0,1.5,0.7,1.5,1.5v6.5
							C481.7,160.7,481.1,161.4,480.2,161.4z"/>
					</g>
					<g>
						<path class="st5" d="M475.9,150.5h-6.5c-0.8,0-1.5-0.7-1.5-1.5s0.7-1.5,1.5-1.5h6.5c0.8,0,1.5,0.7,1.5,1.5
							S476.7,150.5,475.9,150.5z"/>
						<path class="st5" d="M491.2,150.5h-6.5c-0.8,0-1.5-0.7-1.5-1.5s0.7-1.5,1.5-1.5h6.5c0.8,0,1.5,0.7,1.5,1.5
							S492,150.5,491.2,150.5z"/>
					</g>
				</g>
				<g>
					<g>
						<path class="st5" d="M674.2,275.4c-1.3,0-2.4-1.1-2.4-2.4v-10.6c0-1.3,1.1-2.4,2.4-2.4s2.4,1.1,2.4,2.4v10.6
							C676.6,274.3,675.5,275.4,674.2,275.4z"/>
						<path class="st5" d="M674.2,300.3c-1.3,0-2.4-1.1-2.4-2.4v-10.6c0-1.3,1.1-2.4,2.4-2.4s2.4,1.1,2.4,2.4v10.6
							C676.6,299.2,675.5,300.3,674.2,300.3z"/>
					</g>
					<g>
						<path class="st5" d="M667.1,282.5h-10.6c-1.3,0-2.4-1.1-2.4-2.4s1.1-2.4,2.4-2.4h10.6c1.3,0,2.4,1.1,2.4,2.4
							S668.4,282.5,667.1,282.5z"/>
						<path class="st5" d="M692,282.5h-10.6c-1.3,0-2.4-1.1-2.4-2.4s1.1-2.4,2.4-2.4H692c1.3,0,2.4,1.1,2.4,2.4
							S693.3,282.5,692,282.5z"/>
					</g>
				</g>
				<g>
					<g>
						<path class="st5" d="M239.2,279.6c-1.1,0-1.9-0.9-1.9-1.9v-8.5c0-1.1,0.9-1.9,1.9-1.9s1.9,0.9,1.9,1.9v8.5
							C241.1,278.7,240.2,279.6,239.2,279.6z"/>
						<path class="st5" d="M239.2,299.5c-1.1,0-1.9-0.9-1.9-1.9V289c0-1.1,0.9-1.9,1.9-1.9s1.9,0.9,1.9,1.9v8.5
							C241.1,298.6,240.2,299.5,239.2,299.5z"/>
					</g>
					<g>
						<path class="st5" d="M233.5,285.3h-8.5c-1.1,0-1.9-0.9-1.9-1.9c0-1.1,0.9-1.9,1.9-1.9h8.5c1.1,0,1.9,0.9,1.9,1.9
							C235.4,284.4,234.5,285.3,233.5,285.3z"/>
						<path class="st5" d="M253.4,285.3h-8.5c-1.1,0-1.9-0.9-1.9-1.9c0-1.1,0.9-1.9,1.9-1.9h8.5c1.1,0,1.9,0.9,1.9,1.9
							C255.3,284.4,254.4,285.3,253.4,285.3z"/>
					</g>
				</g>
				<g>
					<g>
						<path class="st5" d="M396.2,286.7c-0.8,0-1.5-0.7-1.5-1.5v-6.6c0-0.8,0.7-1.5,1.5-1.5c0.8,0,1.5,0.7,1.5,1.5v6.6
							C397.7,286.1,397.1,286.7,396.2,286.7z"/>
						<path class="st5" d="M396.2,302.1c-0.8,0-1.5-0.7-1.5-1.5v-6.6c0-0.8,0.7-1.5,1.5-1.5c0.8,0,1.5,0.7,1.5,1.5v6.6
							C397.7,301.4,397.1,302.1,396.2,302.1z"/>
					</g>
					<g>
						<path class="st5" d="M391.8,291.1h-6.6c-0.8,0-1.5-0.7-1.5-1.5s0.7-1.5,1.5-1.5h6.6c0.8,0,1.5,0.7,1.5,1.5
							S392.7,291.1,391.8,291.1z"/>
						<path class="st5" d="M407.2,291.1h-6.6c-0.8,0-1.5-0.7-1.5-1.5s0.7-1.5,1.5-1.5h6.6c0.8,0,1.5,0.7,1.5,1.5
							S408,291.1,407.2,291.1z"/>
					</g>
				</g>
				<g>
					<g>
						<path class="st5" d="M89.4,537.8c-1.5,0-2.7-1.2-2.7-2.7v-12c0-1.5,1.2-2.7,2.7-2.7s2.7,1.2,2.7,2.7v12
							C92.1,536.6,90.9,537.8,89.4,537.8z"/>
						<path class="st5" d="M89.4,566c-1.5,0-2.7-1.2-2.7-2.7v-12c0-1.5,1.2-2.7,2.7-2.7s2.7,1.2,2.7,2.7v12
							C92.1,564.7,90.9,566,89.4,566z"/>
					</g>
					<g>
						<path class="st5" d="M81.3,545.9h-12c-1.5,0-2.7-1.2-2.7-2.7c0-1.5,1.2-2.7,2.7-2.7h12c1.5,0,2.7,1.2,2.7,2.7
							C84.1,544.7,82.8,545.9,81.3,545.9z"/>
						<path class="st5" d="M109.5,545.9h-12c-1.5,0-2.7-1.2-2.7-2.7c0-1.5,1.2-2.7,2.7-2.7h12c1.5,0,2.7,1.2,2.7,2.7
							C112.2,544.7,111,545.9,109.5,545.9z"/>
					</g>
				</g>
				<g>
					<g>
						<path class="st5" d="M1086.8,215.8c-0.9,0-1.7-0.8-1.7-1.7v-7.5c0-0.9,0.8-1.7,1.7-1.7s1.7,0.8,1.7,1.7v7.5
							C1088.5,215,1087.7,215.8,1086.8,215.8z"/>
						<path class="st5" d="M1086.8,233.3c-0.9,0-1.7-0.8-1.7-1.7v-7.5c0-0.9,0.8-1.7,1.7-1.7s1.7,0.8,1.7,1.7v7.5
							C1088.5,232.6,1087.7,233.3,1086.8,233.3z"/>
					</g>
					<g>
						<path class="st5" d="M1081.8,220.8h-7.5c-0.9,0-1.7-0.8-1.7-1.7s0.8-1.7,1.7-1.7h7.5c0.9,0,1.7,0.8,1.7,1.7
							S1082.7,220.8,1081.8,220.8z"/>
						<path class="st5" d="M1099.3,220.8h-7.5c-0.9,0-1.7-0.8-1.7-1.7s0.8-1.7,1.7-1.7h7.5c0.9,0,1.7,0.8,1.7,1.7
							S1100.3,220.8,1099.3,220.8z"/>
					</g>
				</g>
				<g>
					<g>
						<path class="st5" d="M821.6,182.4c-1,0-1.8-0.8-1.8-1.8v-7.8c0-1,0.8-1.8,1.8-1.8c1,0,1.8,0.8,1.8,1.8v7.8
							C823.4,181.6,822.6,182.4,821.6,182.4z"/>
						<path class="st5" d="M821.6,200.7c-1,0-1.8-0.8-1.8-1.8v-7.8c0-1,0.8-1.8,1.8-1.8c1,0,1.8,0.8,1.8,1.8v7.8
							C823.4,199.9,822.6,200.7,821.6,200.7z"/>
					</g>
					<g>
						<path class="st5" d="M816.4,187.6h-7.8c-1,0-1.8-0.8-1.8-1.8c0-1,0.8-1.8,1.8-1.8h7.8c1,0,1.8,0.8,1.8,1.8
							C818.2,186.8,817.4,187.6,816.4,187.6z"/>
						<path class="st5" d="M834.7,187.6h-7.8c-1,0-1.8-0.8-1.8-1.8c0-1,0.8-1.8,1.8-1.8h7.8c1,0,1.8,0.8,1.8,1.8
							C836.5,186.8,835.7,187.6,834.7,187.6z"/>
					</g>
				</g>
				<g>
					<g>
						<path class="st5" d="M1218.9,316.1c-1,0-1.8-0.8-1.8-1.8v-7.7c0-1,0.8-1.8,1.8-1.8c1,0,1.8,0.8,1.8,1.8v7.7
							C1220.7,315.3,1219.9,316.1,1218.9,316.1z"/>
						<path class="st5" d="M1218.9,334.2c-1,0-1.8-0.8-1.8-1.8v-7.7c0-1,0.8-1.8,1.8-1.8c1,0,1.8,0.8,1.8,1.8v7.7
							C1220.7,333.5,1219.9,334.2,1218.9,334.2z"/>
					</g>
					<g>
						<path class="st5" d="M1213.7,321.3h-7.7c-1,0-1.8-0.8-1.8-1.8c0-1,0.8-1.8,1.8-1.8h7.7c1,0,1.8,0.8,1.8,1.8
							C1215.5,320.5,1214.7,321.3,1213.7,321.3z"/>
						<path class="st5" d="M1231.9,321.3h-7.7c-1,0-1.8-0.8-1.8-1.8c0-1,0.8-1.8,1.8-1.8h7.7c1,0,1.8,0.8,1.8,1.8
							C1233.6,320.5,1232.8,321.3,1231.9,321.3z"/>
					</g>
				</g>
				<g>
					<g>
						<g>
							<g>
								<path class="st5" d="M575,389.6c-1.5,0-2.7-1.2-2.7-2.7V271.1c0-1.5,1.2-2.7,2.7-2.7c1.5,0,2.7,1.2,2.7,2.7v115.8
									C577.7,388.4,576.5,389.6,575,389.6z"/>
								<g>
									<path class="st9" d="M583.6,336.4c0,4.7-3.8,8.5-8.5,8.5c-4.7,0-8.5-3.8-8.5-8.5c0-4.7,3.8-8.5,8.5-8.5
										C579.7,327.9,583.6,331.7,583.6,336.4z"/>
									<path class="st5" d="M575,347.7c-6.2,0-11.3-5.1-11.3-11.3s5.1-11.3,11.3-11.3s11.3,5.1,11.3,11.3S581.2,347.7,575,347.7z
										 M575,330.6c-3.2,0-5.8,2.6-5.8,5.8s2.6,5.8,5.8,5.8c3.2,0,5.8-2.6,5.8-5.8S578.2,330.6,575,330.6z"/>
								</g>
								<g>
									<g>
										<rect x="554.6" y="345" class="st9" width="40.7" height="103.9"/>
										<path class="st5" d="M598.1,451.6h-46.2V342.3h46.2V451.6z M557.4,446.1h35.3v-98.4h-35.3V446.1z"/>
									</g>
									<g>
										<rect x="560.8" y="345" class="st5" width="2.7" height="103.9"/>
										<rect x="569.4" y="345" class="st5" width="2.7" height="103.9"/>
										<rect x="577.9" y="345" class="st5" width="2.7" height="103.9"/>
										<rect x="586.5" y="345" class="st5" width="2.7" height="103.9"/>
									</g>
								</g>
								<g>
									<g>
										<rect x="547.3" y="366.8" class="st9" width="55.5" height="141.4"/>
										<path class="st5" d="M605.5,511h-60.9V364.1h60.9V511z M550,505.5h50v-136h-50V505.5z"/>
									</g>
									<g>
										<rect x="556.1" y="366.8" class="st5" width="2.7" height="141.4"/>
										<rect x="567.8" y="366.8" class="st5" width="2.7" height="141.4"/>
										<rect x="579.5" y="366.8" class="st5" width="2.7" height="141.4"/>
										<rect x="591.2" y="366.8" class="st5" width="2.7" height="141.4"/>
									</g>
								</g>
								<g>
									<g>
										<rect x="539.9" y="401.7" class="st9" width="70.2" height="179"/>
										<path class="st5" d="M612.8,583.4h-75.6V398.9h75.6V583.4z M542.6,577.9h64.7V404.4h-64.7V577.9z"/>
									</g>
									<g>
										<rect x="551.5" y="401.7" class="st5" width="2.7" height="179"/>
										<rect x="566.3" y="401.7" class="st5" width="2.7" height="179"/>
										<rect x="581" y="401.7" class="st5" width="2.7" height="179"/>
										<rect x="595.8" y="401.7" class="st5" width="2.7" height="179"/>
									</g>
								</g>
								<g>
									<g>
										<rect x="528.7" y="438.5" class="st9" width="92.6" height="273.7"/>
										<path class="st5" d="M624.1,715H526V435.8h98.1V715z M531.4,709.5h87.2V441.3h-87.2V709.5z"/>
									</g>
									<g>
										<rect x="544.4" y="438.5" class="st5" width="2.7" height="273.7"/>
										<rect x="563.9" y="438.5" class="st5" width="2.7" height="273.7"/>
										<rect x="583.4" y="438.5" class="st5" width="2.7" height="273.7"/>
										<rect x="602.9" y="438.5" class="st5" width="2.7" height="273.7"/>
									</g>
								</g>
								<g>
									<rect x="518.5" y="702.1" class="st8" width="113" height="34.5"/>
									<path class="st5" d="M634.3,739.3H515.8v-40h118.5V739.3z M521.2,733.9h107.6v-29.1H521.2V733.9z"/>
								</g>
							</g>
							<g>
								<path class="st5" d="M762.3,389.6c-1.5,0-2.7-1.2-2.7-2.7V271.1c0-1.5,1.2-2.7,2.7-2.7s2.7,1.2,2.7,2.7v115.8
									C765,388.4,763.8,389.6,762.3,389.6z"/>
								<g>
									<path class="st9" d="M770.8,336.4c0,4.7-3.8,8.5-8.5,8.5c-4.7,0-8.5-3.8-8.5-8.5c0-4.7,3.8-8.5,8.5-8.5
										C767,327.9,770.8,331.7,770.8,336.4z"/>
									<path class="st5" d="M762.3,347.7c-6.2,0-11.3-5.1-11.3-11.3s5.1-11.3,11.3-11.3s11.3,5.1,11.3,11.3
										S768.5,347.7,762.3,347.7z M762.3,330.6c-3.2,0-5.8,2.6-5.8,5.8s2.6,5.8,5.8,5.8c3.2,0,5.8-2.6,5.8-5.8
										S765.5,330.6,762.3,330.6z"/>
								</g>
								<g>
									<g>
										<rect x="741.9" y="345" class="st9" width="40.7" height="103.9"/>
										<path class="st5" d="M785.4,451.6h-46.2V342.3h46.2V451.6z M744.6,446.1h35.3v-98.4h-35.3V446.1z"/>
									</g>
									<g>
										<rect x="748" y="345" class="st5" width="2.7" height="103.9"/>
										<rect x="756.6" y="345" class="st5" width="2.7" height="103.9"/>
										<rect x="765.2" y="345" class="st5" width="2.7" height="103.9"/>
										<rect x="773.8" y="345" class="st5" width="2.7" height="103.9"/>
									</g>
								</g>
								<g>
									<g>
										<rect x="734.5" y="366.8" class="st9" width="55.5" height="141.4"/>
										<path class="st5" d="M792.7,511h-60.9V364.1h60.9V511z M737.3,505.5h50v-136h-50V505.5z"/>
									</g>
									<g>
										<rect x="743.4" y="366.8" class="st5" width="2.7" height="141.4"/>
										<rect x="755.1" y="366.8" class="st5" width="2.7" height="141.4"/>
										<rect x="766.7" y="366.8" class="st5" width="2.7" height="141.4"/>
										<rect x="778.4" y="366.8" class="st5" width="2.7" height="141.4"/>
									</g>
								</g>
								<g>
									<g>
										<rect x="727.2" y="401.7" class="st9" width="70.2" height="179"/>
										<path class="st5" d="M800.1,583.4h-75.6V398.9h75.6V583.4z M729.9,577.9h64.7V404.4h-64.7V577.9z"/>
									</g>
									<g>
										<rect x="738.7" y="401.7" class="st5" width="2.7" height="179"/>
										<rect x="753.5" y="401.7" class="st5" width="2.7" height="179"/>
										<rect x="768.3" y="401.7" class="st5" width="2.7" height="179"/>
										<rect x="783.1" y="401.7" class="st5" width="2.7" height="179"/>
									</g>
								</g>
								<g>
									<g>
										<rect x="716" y="438.5" class="st9" width="92.6" height="273.7"/>
										<path class="st5" d="M811.3,715h-98.1V435.8h98.1V715z M718.7,709.5h87.2V441.3h-87.2V709.5z"/>
									</g>
									<g>
										<rect x="731.6" y="438.5" class="st5" width="2.7" height="273.7"/>
										<rect x="751.2" y="438.5" class="st5" width="2.7" height="273.7"/>
										<rect x="770.7" y="438.5" class="st5" width="2.7" height="273.7"/>
										<rect x="790.2" y="438.5" class="st5" width="2.7" height="273.7"/>
									</g>
								</g>
								<g>
									<rect x="705.8" y="702.1" class="st8" width="113" height="34.5"/>
									<path class="st5" d="M821.5,739.3H703v-40h118.5V739.3z M708.5,733.9h107.6v-29.1H708.5V733.9z"/>
								</g>
							</g>
						</g>
						<g>
							<g>
								<rect x="621.8" y="541" class="st8" width="93.7" height="22.3"/>
								<path class="st5" d="M718.2,566.1h-99.2v-27.8h99.2V566.1z M624.5,560.6h88.2v-16.9h-88.2V560.6z"/>
							</g>
							<rect x="621.8" y="550.8" class="st5" width="93.7" height="2.7"/>
						</g>
						<g>
							<path class="st5" d="M715.5,609.8c-0.7,0-1.3-0.2-1.9-0.7l-46.9-43.7c-1.1-1-1.2-2.8-0.1-3.9c1-1.1,2.8-1.2,3.9-0.1
								l46.9,43.7c1.1,1,1.2,2.8,0.1,3.9C717,609.5,716.2,609.8,715.5,609.8z"/>
							<path class="st5" d="M621.8,609.8c-0.7,0-1.5-0.3-2-0.9c-1-1.1-1-2.8,0.1-3.9l46.9-43.7c1.1-1,2.8-1,3.9,0.1
								c1,1.1,1,2.8-0.1,3.9L623.6,609C623.1,609.5,622.5,609.8,621.8,609.8z"/>
						</g>
					</g>
					<g class="st10">
						<path class="st5" d="M821.1,699.8h-10.2V436.3h-11.2v-36.9h-7.4v-34.8h-7.4v-21.8h-13.8c1.3-1.8,2-3.9,2-6.3
							c0-5.2-3.7-9.5-8.5-10.6v-54.8c0-1.3-1-2.3-2.3-2.3c-1.3,0-2.3,1-2.3,2.3v54.8c-4.9,1.1-8.5,5.4-8.5,10.6c0,2.3,0.8,4.5,2,6.3
							h-7.6c-0.1,0.2-0.3,0.5-0.4,0.7h13.8v21.8h7.4v34.8h7.4v36.9h11.2v263.5h10.2v38.4h25.6V699.8z"/>
						<path class="st5" d="M623.6,644.2v-35.7v-6.2v-36.6v-26.9v-58.4v-44.1h-11.2v-36.9H605v-34.8h-7.4v-21.8h-13.8
							c1.3-1.8,2-3.9,2-6.3c0-5.2-3.7-9.5-8.5-10.6v-54.8c0-1.3-1-2.3-2.3-2.3c-1.3,0-2.3,1-2.3,2.3v54.8c-4.9,1.1-8.5,5.4-8.5,10.6
							c0,2.3,0.8,4.5,2,6.3h-7.6c-0.1,0.2-0.3,0.5-0.4,0.7H572v21.8h7.4v34.8h7.4v36.9H598V481v58.4v26.9v36.6v6.2v35.7v55.6h10.2
							v38.4h25.6v-39.1h-10.2V644.2z"/>
					</g>
				</g>
				<g>
					<g>
						<rect x="1086.8" y="448.5" class="st8" width="41.5" height="288.1"/>
						<path class="st5" d="M1131,739.3h-47V445.7h47V739.3z M1089.5,733.9h36V451.2h-36V733.9z"/>
					</g>
					<g>
						<path class="st6" d="M1223.2,736.6c0-180.1-117.6-326.2-117.6-326.2v326.2H1223.2z"/>
						<path class="st5" d="M1225.9,739.3h-123.1V403.8l4.7,4.7c1.2,1.2,118.4,147.3,118.4,328.1V739.3z M1108.3,733.9h112.2
							c-1-155.2-90.2-285.5-112.2-315.3V733.9z"/>
					</g>
					<g>
						<path class="st9" d="M1119.3,736.6V467.9c32.4,51,86,152.3,90,268.7H1119.3z"/>
						<path class="st5" d="M1212.1,739.3h-95.5V458.5l5,7.9c32,50.5,86.4,152.7,90.4,270.1L1212.1,739.3z M1122,733.9h84.4
							c-4.5-109-52.6-204.6-84.4-256.5V733.9z"/>
					</g>
					<g class="st10">
						<path class="st5" d="M1225.1,719.5c-3-73.5-24.4-140.3-48.2-193v-29.1h-14.1c-27.1-52.6-53.2-85.6-55.5-88.4l-4.1-5.1v42.2
							h-6.7c8.8,13.8,19,31,29.4,51.2h14.1v29.1c23.8,52.6,45.3,119.4,48.2,193h6.4v19.2h-6v0.2h23h13.9v-0.2h6v-19.2H1225.1z"/>
					</g>
					<g>
						<g>
							<path class="st4" d="M1121.2,499.7c-27.6,60.2-55.6,144.1-55.6,237h109v-237H1121.2z"/>
							<path class="st5" d="M1177.3,739.3h-114.5v-2.7c0-96.1,30.4-182.5,55.9-238.1l0.7-1.6h57.9V739.3z M1068.3,733.9h103.6V502.4
								H1123C1098.1,557,1068.9,640.7,1068.3,733.9z"/>
						</g>
						<g>
							<path class="st5" d="M1161.4,551h-38.7c-1.5,0-2.7-1.2-2.7-2.7s1.2-2.7,2.7-2.7h38.7c1.5,0,2.7,1.2,2.7,2.7
								S1162.9,551,1161.4,551z"/>
							<path class="st5" d="M1161.4,577.9H1112c-1.5,0-2.7-1.2-2.7-2.7c0-1.5,1.2-2.7,2.7-2.7h49.4c1.5,0,2.7,1.2,2.7,2.7
								C1164.1,576.7,1162.9,577.9,1161.4,577.9z"/>
							<path class="st5" d="M1161.4,604.8h-58.6c-1.5,0-2.7-1.2-2.7-2.7c0-1.5,1.2-2.7,2.7-2.7h58.6c1.5,0,2.7,1.2,2.7,2.7
								C1164.1,603.6,1162.9,604.8,1161.4,604.8z"/>
							<path class="st5" d="M1161.4,631.7h-66.2c-1.5,0-2.7-1.2-2.7-2.7s1.2-2.7,2.7-2.7h66.2c1.5,0,2.7,1.2,2.7,2.7
								S1162.9,631.7,1161.4,631.7z"/>
							<path class="st5" d="M1161.4,658.6h-74.6c-1.5,0-2.7-1.2-2.7-2.7c0-1.5,1.2-2.7,2.7-2.7h74.6c1.5,0,2.7,1.2,2.7,2.7
								C1164.1,657.4,1162.9,658.6,1161.4,658.6z"/>
							<path class="st5" d="M1161.4,685.5h-79c-1.5,0-2.7-1.2-2.7-2.7c0-1.5,1.2-2.7,2.7-2.7h79c1.5,0,2.7,1.2,2.7,2.7
								C1164.1,684.3,1162.9,685.5,1161.4,685.5z"/>
							<path class="st5" d="M1161.4,712.4h-82.6c-1.5,0-2.7-1.2-2.7-2.7c0-1.5,1.2-2.7,2.7-2.7h82.6c1.5,0,2.7,1.2,2.7,2.7
								C1164.1,711.2,1162.9,712.4,1161.4,712.4z"/>
							<path class="st5" d="M1161.4,739.3h-84.8c-1.5,0-2.7-1.2-2.7-2.7s1.2-2.7,2.7-2.7h84.8c1.5,0,2.7,1.2,2.7,2.7
								S1162.9,739.3,1161.4,739.3z"/>
						</g>
					</g>
					<polygon class="st14" points="1140.9,497.4 1140.9,738.9 1161.4,738.9 1176.9,738.9 1176.9,497.4 					"/>
					<g>
						<rect x="1059.5" y="721.8" class="st8" width="169.7" height="14.6"/>
						<path class="st5" d="M1232,739.1h-175.1V719H1232V739.1z M1062.3,733.7h164.2v-9.2h-164.2V733.7z"/>
					</g>
				</g>
				<g>
					<g>
						<path class="st5" d="M1249.4,739.3c-1.5,0-2.7-1.2-2.7-2.7v-67.8c0-1.5,1.2-2.7,2.7-2.7s2.7,1.2,2.7,2.7v67.8
							C1252.1,738.1,1250.9,739.3,1249.4,739.3z"/>
						<g>
							<path class="st16" d="M1261.3,670.1c0.9-1.8,1.4-3.8,1.4-5.9c0-7.3-5.9-13.3-13.3-13.3c-7.3,0-13.3,5.9-13.3,13.3
								c0,2.1,0.5,4.1,1.4,5.9c-5,3.7-8.3,9.6-8.3,16.2c0,11.1,9,20.1,20.1,20.1c11.1,0,20.1-9,20.1-20.1
								C1269.5,679.7,1266.3,673.8,1261.3,670.1z"/>
							<path class="st5" d="M1249.4,709.2c-12.6,0-22.9-10.3-22.9-22.9c0-6.5,2.8-12.8,7.7-17.1c-0.6-1.6-0.8-3.3-0.8-5.1
								c0-8.8,7.2-16,16-16s16,7.2,16,16c0,1.7-0.3,3.4-0.8,5.1c4.8,4.3,7.7,10.6,7.7,17.1C1272.2,699,1262,709.2,1249.4,709.2z
								 M1249.4,653.6c-5.8,0-10.6,4.7-10.6,10.6c0,1.6,0.4,3.2,1.1,4.7l1,2.1l-1.9,1.4c-4.5,3.3-7.1,8.4-7.1,14
								c0,9.6,7.8,17.4,17.4,17.4s17.4-7.8,17.4-17.4c0-5.6-2.6-10.7-7.1-14l-1.9-1.4l1-2.1c0.7-1.5,1.1-3.1,1.1-4.7
								C1259.9,658.4,1255.2,653.6,1249.4,653.6z"/>
						</g>
					</g>
					<g>
						<path class="st5" d="M1053.2,739.3c-1.5,0-2.7-1.2-2.7-2.7v-67.8c0-1.5,1.2-2.7,2.7-2.7c1.5,0,2.7,1.2,2.7,2.7v67.8
							C1056,738.1,1054.8,739.3,1053.2,739.3z"/>
						<g>
							<path class="st16" d="M1065.1,670.1c0.9-1.8,1.4-3.8,1.4-5.9c0-7.3-5.9-13.3-13.3-13.3c-7.3,0-13.3,5.9-13.3,13.3
								c0,2.1,0.5,4.1,1.4,5.9c-5,3.7-8.3,9.6-8.3,16.2c0,11.1,9,20.1,20.1,20.1s20.1-9,20.1-20.1
								C1073.4,679.7,1070.1,673.8,1065.1,670.1z"/>
							<path class="st5" d="M1053.2,709.2c-12.6,0-22.9-10.3-22.9-22.9c0-6.5,2.8-12.8,7.7-17.1c-0.6-1.6-0.8-3.3-0.8-5.1
								c0-8.8,7.2-16,16-16c8.8,0,16,7.2,16,16c0,1.7-0.3,3.4-0.8,5.1c4.8,4.3,7.7,10.6,7.7,17.1
								C1076.1,699,1065.9,709.2,1053.2,709.2z M1053.2,653.6c-5.8,0-10.6,4.7-10.6,10.6c0,1.6,0.4,3.2,1.1,4.7l1,2.1l-1.9,1.4
								c-4.5,3.3-7.1,8.4-7.1,14c0,9.6,7.8,17.4,17.4,17.4c9.6,0,17.4-7.8,17.4-17.4c0-5.6-2.6-10.7-7.1-14l-1.9-1.4l1-2.1
								c0.7-1.5,1.1-3.1,1.1-4.7C1063.8,658.4,1059.1,653.6,1053.2,653.6z"/>
						</g>
					</g>
					<g>
						<path class="st5" d="M818.8,739.3c-1.5,0-2.7-1.2-2.7-2.7v-67.8c0-1.5,1.2-2.7,2.7-2.7c1.5,0,2.7,1.2,2.7,2.7v67.8
							C821.5,738.1,820.3,739.3,818.8,739.3z"/>
						<g>
							<path class="st16" d="M830.7,670.1c0.9-1.8,1.4-3.8,1.4-5.9c0-7.3-5.9-13.3-13.3-13.3c-7.3,0-13.3,5.9-13.3,13.3
								c0,2.1,0.5,4.1,1.4,5.9c-5,3.7-8.3,9.6-8.3,16.2c0,11.1,9,20.1,20.1,20.1c11.1,0,20.1-9,20.1-20.1
								C838.9,679.7,835.7,673.8,830.7,670.1z"/>
							<path class="st5" d="M818.8,709.2c-12.6,0-22.9-10.3-22.9-22.9c0-6.5,2.8-12.8,7.7-17.1c-0.6-1.6-0.8-3.3-0.8-5.1
								c0-8.8,7.2-16,16-16c8.8,0,16,7.2,16,16c0,1.7-0.3,3.4-0.8,5.1c4.8,4.3,7.7,10.6,7.7,17.1C841.7,699,831.4,709.2,818.8,709.2
								z M818.8,653.6c-5.8,0-10.6,4.7-10.6,10.6c0,1.6,0.4,3.2,1.1,4.7l1,2.1l-1.9,1.4c-4.5,3.3-7.1,8.4-7.1,14
								c0,9.6,7.8,17.4,17.4,17.4c9.6,0,17.4-7.8,17.4-17.4c0-5.6-2.6-10.7-7.1-14l-1.9-1.4l1-2.1c0.7-1.5,1.1-3.1,1.1-4.7
								C829.4,658.4,824.6,653.6,818.8,653.6z"/>
						</g>
					</g>
					<g>
						<path class="st5" d="M507.6,739.3c-1.5,0-2.7-1.2-2.7-2.7v-67.8c0-1.5,1.2-2.7,2.7-2.7s2.7,1.2,2.7,2.7v67.8
							C510.3,738.1,509.1,739.3,507.6,739.3z"/>
						<g>
							<path class="st16" d="M519.4,670.1c0.9-1.8,1.4-3.8,1.4-5.9c0-7.3-5.9-13.3-13.3-13.3c-7.3,0-13.3,5.9-13.3,13.3
								c0,2.1,0.5,4.1,1.4,5.9c-5,3.7-8.3,9.6-8.3,16.2c0,11.1,9,20.1,20.1,20.1c11.1,0,20.1-9,20.1-20.1
								C527.7,679.7,524.4,673.8,519.4,670.1z"/>
							<path class="st5" d="M507.6,709.2c-12.6,0-22.9-10.3-22.9-22.9c0-6.5,2.8-12.8,7.7-17.1c-0.6-1.6-0.8-3.3-0.8-5.1
								c0-8.8,7.2-16,16-16s16,7.2,16,16c0,1.7-0.3,3.4-0.8,5.1c4.8,4.3,7.7,10.6,7.7,17.1C530.4,699,520.2,709.2,507.6,709.2z
								 M507.6,653.6c-5.8,0-10.6,4.7-10.6,10.6c0,1.6,0.4,3.2,1.1,4.7l1,2.1l-1.9,1.4c-4.5,3.3-7.1,8.4-7.1,14
								c0,9.6,7.8,17.4,17.4,17.4c9.6,0,17.4-7.8,17.4-17.4c0-5.6-2.6-10.7-7.1-14l-1.9-1.4l1-2.1c0.7-1.5,1.1-3.1,1.1-4.7
								C518.1,658.4,513.4,653.6,507.6,653.6z"/>
						</g>
					</g>
					<g>
						<path class="st5" d="M169.6,739.3c-1.5,0-2.7-1.2-2.7-2.7v-67.8c0-1.5,1.2-2.7,2.7-2.7s2.7,1.2,2.7,2.7v67.8
							C172.4,738.1,171.2,739.3,169.6,739.3z"/>
						<g>
							<path class="st16" d="M181.5,670.1c0.9-1.8,1.4-3.8,1.4-5.9c0-7.3-5.9-13.3-13.3-13.3c-7.3,0-13.3,5.9-13.3,13.3
								c0,2.1,0.5,4.1,1.4,5.9c-5,3.7-8.3,9.6-8.3,16.2c0,11.1,9,20.1,20.1,20.1c11.1,0,20.1-9,20.1-20.1
								C189.8,679.7,186.5,673.8,181.5,670.1z"/>
							<path class="st5" d="M169.6,709.2c-12.6,0-22.9-10.3-22.9-22.9c0-6.5,2.8-12.8,7.7-17.1c-0.6-1.6-0.8-3.3-0.8-5.1
								c0-8.8,7.2-16,16-16s16,7.2,16,16c0,1.7-0.3,3.4-0.8,5.1c4.8,4.3,7.7,10.6,7.7,17.1C192.5,699,182.3,709.2,169.6,709.2z
								 M169.6,653.6c-5.8,0-10.6,4.7-10.6,10.6c0,1.6,0.4,3.2,1.1,4.7l1,2.1l-1.9,1.4c-4.5,3.3-7.1,8.4-7.1,14
								c0,9.6,7.8,17.4,17.4,17.4c9.6,0,17.4-7.8,17.4-17.4c0-5.6-2.6-10.7-7.1-14l-1.9-1.4l1-2.1c0.7-1.5,1.1-3.1,1.1-4.7
								C180.2,658.4,175.5,653.6,169.6,653.6z"/>
						</g>
					</g>
					<g>
						<path class="st5" d="M104.7,739.3c-1.5,0-2.7-1.2-2.7-2.7v-67.8c0-1.5,1.2-2.7,2.7-2.7s2.7,1.2,2.7,2.7v67.8
							C107.4,738.1,106.2,739.3,104.7,739.3z"/>
						<g>
							<path class="st16" d="M116.6,670.1c0.9-1.8,1.4-3.8,1.4-5.9c0-7.3-5.9-13.3-13.3-13.3c-7.3,0-13.3,5.9-13.3,13.3
								c0,2.1,0.5,4.1,1.4,5.9c-5,3.7-8.3,9.6-8.3,16.2c0,11.1,9,20.1,20.1,20.1c11.1,0,20.1-9,20.1-20.1
								C124.8,679.7,121.6,673.8,116.6,670.1z"/>
							<path class="st5" d="M104.7,709.2c-12.6,0-22.9-10.3-22.9-22.9c0-6.5,2.8-12.8,7.7-17.1c-0.6-1.6-0.8-3.3-0.8-5.1
								c0-8.8,7.2-16,16-16s16,7.2,16,16c0,1.7-0.3,3.4-0.8,5.1c4.8,4.3,7.7,10.6,7.7,17.1C127.6,699,117.3,709.2,104.7,709.2z
								 M104.7,653.6c-5.8,0-10.6,4.7-10.6,10.6c0,1.6,0.4,3.2,1.1,4.7l1,2.1l-1.9,1.4c-4.5,3.3-7.1,8.4-7.1,14
								c0,9.6,7.8,17.4,17.4,17.4c9.6,0,17.4-7.8,17.4-17.4c0-5.6-2.6-10.7-7.1-14l-1.9-1.4l1-2.1c0.7-1.5,1.1-3.1,1.1-4.7
								C115.2,658.4,110.5,653.6,104.7,653.6z"/>
						</g>
					</g>
				</g>
				<g class="st10">
					<path class="st5" d="M1264,669.4c0.6-1.7,0.9-3.4,0.9-5.2c0-8.6-7-15.6-15.6-15.6c-3,0-5.8,0.9-8.2,2.3
						c4.4,2.7,7.4,7.6,7.4,13.2c0,1.8-0.3,3.5-0.9,5.2c4.9,4.2,7.8,10.4,7.8,16.9c0,9.5-5.9,17.6-14.3,20.9c1.9,0.7,3.8,1.2,5.9,1.4
						v27.9c0,1.3,1,2.3,2.3,2.3s2.3-1,2.3-2.3v-27.9c11.3-1.1,20.1-10.7,20.1-22.3C1271.8,679.9,1268.9,673.7,1264,669.4z"/>
					<path class="st5" d="M1067.9,669.4c0.6-1.7,0.9-3.4,0.9-5.2c0-8.6-7-15.6-15.6-15.6c-3,0-5.8,0.9-8.2,2.3
						c4.4,2.7,7.4,7.6,7.4,13.2c0,1.8-0.3,3.5-0.9,5.2c4.9,4.2,7.8,10.4,7.8,16.9c0,9.5-5.9,17.6-14.3,20.9c1.9,0.7,3.8,1.2,5.9,1.4
						v27.9c0,1.3,1,2.3,2.3,2.3s2.3-1,2.3-2.3v-27.9c11.3-1.1,20.1-10.7,20.1-22.3C1075.7,679.9,1072.8,673.7,1067.9,669.4z"/>
					<path class="st5" d="M833.5,669.4c0.6-1.7,0.9-3.4,0.9-5.2c0-8.6-7-15.6-15.6-15.6c-3,0-5.8,0.9-8.2,2.3
						c4.4,2.7,7.4,7.6,7.4,13.2c0,1.8-0.3,3.5-0.9,5.2c4.9,4.2,7.8,10.4,7.8,16.9c0,9.5-5.9,17.6-14.3,20.9c1.9,0.7,3.8,1.2,5.9,1.4
						v27.9c0,1.3,1,2.3,2.3,2.3c1.3,0,2.3-1,2.3-2.3v-27.9c11.3-1.1,20.1-10.7,20.1-22.3C841.2,679.9,838.4,673.7,833.5,669.4z"/>
					<path class="st5" d="M522.2,669.4c0.6-1.7,0.9-3.4,0.9-5.2c0-8.6-7-15.6-15.6-15.6c-3,0-5.8,0.9-8.2,2.3
						c4.4,2.7,7.4,7.6,7.4,13.2c0,1.8-0.3,3.5-0.9,5.2c4.9,4.2,7.8,10.4,7.8,16.9c0,9.5-5.9,17.6-14.3,20.9c1.9,0.7,3.8,1.2,5.9,1.4
						v27.9c0,1.3,1,2.3,2.3,2.3s2.3-1,2.3-2.3v-27.9c11.3-1.1,20.1-10.7,20.1-22.3C530,679.9,527.1,673.7,522.2,669.4z"/>
					<path class="st5" d="M184.3,669.4c0.6-1.7,0.9-3.4,0.9-5.2c0-8.6-7-15.6-15.6-15.6c-3,0-5.8,0.9-8.2,2.3
						c4.4,2.7,7.4,7.6,7.4,13.2c0,1.8-0.3,3.5-0.9,5.2c4.9,4.2,7.8,10.4,7.8,16.9c0,9.5-5.9,17.6-14.3,20.9c1.9,0.7,3.8,1.2,5.9,1.4
						v27.9c0,1.3,1,2.3,2.3,2.3c1.3,0,2.3-1,2.3-2.3v-27.9c11.3-1.1,20.1-10.7,20.1-22.3C192.1,679.9,189.2,673.7,184.3,669.4z"/>
					<path class="st5" d="M119.4,669.4c0.6-1.7,0.9-3.4,0.9-5.2c0-8.6-7-15.6-15.6-15.6c-3,0-5.8,0.9-8.2,2.3
						c4.4,2.7,7.4,7.6,7.4,13.2c0,1.8-0.3,3.5-0.9,5.2c4.9,4.2,7.8,10.4,7.8,16.9c0,9.5-5.9,17.6-14.3,20.9c1.9,0.7,3.8,1.2,5.9,1.4
						v27.9c0,1.3,1,2.3,2.3,2.3s2.3-1,2.3-2.3v-27.9c11.3-1.1,20.1-10.7,20.1-22.3C127.1,679.9,124.2,673.7,119.4,669.4z"/>
				</g>
			</g>
		</g>
	</g>
</g>
</svg>
